<?xml version="1.0" standalone="no"?>
<!DOCTYPE svg PUBLIC "-//W3C//DTD SVG 20010904//EN"
 "http://www.w3.org/TR/2001/REC-SVG-20010904/DTD/svg10.dtd">
<svg version="1.0" xmlns="http://www.w3.org/2000/svg"
 width="295.000000pt" height="295.000000pt" viewBox="0 0 295.000000 295.000000"
 preserveAspectRatio="xMidYMid meet">
<metadata>
Created by potrace 1.14, written by Peter Selinger 2001-2017
</metadata>
<g transform="translate(0.000000,295.000000) scale(0.100000,-0.100000)"
fill="#000000" stroke="none">
<path d="M1555 1806 c-102 -20 -187 -54 -275 -110 -62 -39 -174 -149 -221
-219 -182 -264 -176 -642 13 -895 41 -55 70 -65 91 -31 8 12 0 31 -35 80 -170
240 -189 504 -55 763 72 139 212 263 367 324 169 66 408 57 555 -22 l40 -21
-37 -3 c-32 -3 -43 -10 -68 -47 -45 -65 -42 -69 43 -61 39 3 118 9 175 13 76
4 102 9 102 20 0 35 -210 159 -330 195 -85 26 -270 32 -365 14z"/>
<path d="M1691 1701 c-31 -5 -52 -17 -70 -38 -94 -111 -104 -125 -94 -131 15
-10 244 11 264 23 29 19 102 126 92 136 -13 13 -138 20 -192 10z"/>
<path d="M1442 1626 c-69 -37 -152 -102 -152 -117 0 -7 21 -8 58 -4 54 6 61
10 120 70 91 92 83 109 -26 51z"/>
<path d="M180 1603 c0 -8 34 -29 105 -66 22 -12 42 -23 45 -26 8 -9 42 -30 80
-48 19 -10 42 -23 51 -30 19 -16 178 -113 185 -113 2 0 27 -16 55 -35 28 -19
57 -35 64 -35 7 0 15 -6 18 -12 5 -15 5 -16 37 90 21 71 21 102 1 102 -5 0
-13 -4 -16 -10 -10 -16 -23 -12 -30 9 -3 11 -15 23 -27 27 -44 14 -80 62 -38
51 11 -3 23 -1 26 4 5 8 -64 13 -146 10 -26 -1 -31 1 -20 8 18 13 12 15 -90
31 -122 19 -192 31 -237 41 -51 11 -63 11 -63 2z m365 -83 c3 -5 2 -10 -4 -10
-5 0 -13 5 -16 10 -3 6 -2 10 4 10 5 0 13 -4 16 -10z m90 -30 c3 -5 2 -10 -4
-10 -5 0 -13 5 -16 10 -3 6 -2 10 4 10 5 0 13 -4 16 -10z"/>
<path d="M2429 1526 c-2 -2 -43 -6 -90 -8 -47 -3 -91 -8 -97 -12 -11 -7 -117
-181 -129 -212 -5 -15 6 -15 113 -8 65 4 128 7 139 7 57 -3 66 5 116 112 27
57 49 109 49 115 0 9 -91 15 -101 6z"/>
<path d="M2015 1505 c-5 -2 -50 -7 -98 -10 l-88 -7 -85 -112 c-46 -62 -84
-116 -84 -121 0 -11 299 4 321 15 18 10 149 212 149 230 0 9 -91 13 -115 5z"/>
<path d="M755 1492 c6 -6 26 -12 45 -14 29 -2 35 -7 35 -25 1 -29 18 -35 24
-8 2 11 8 23 14 27 20 13 -3 22 -66 26 -43 3 -59 1 -52 -6z"/>
<path d="M1655 1475 c-5 -2 -55 -7 -110 -10 l-100 -7 -102 -107 c-56 -58 -102
-112 -103 -120 0 -14 61 -12 249 5 l63 7 84 105 c46 58 84 112 84 119 0 12
-40 17 -65 8z"/>
<path d="M1263 1440 c-55 -8 -66 -19 -113 -112 -71 -143 -48 -145 81 -7 52 56
95 105 97 109 5 13 -20 17 -65 10z"/>
<path d="M2185 1200 c-71 -3 -135 -8 -142 -13 -12 -8 -143 -212 -143 -223 0
-13 353 5 366 18 20 23 115 210 109 217 -8 7 -27 7 -190 1z"/>
<path d="M1663 1181 c-39 -3 -73 -8 -75 -11 -2 -3 -26 -32 -53 -65 -81 -96
-115 -142 -115 -154 0 -12 114 -13 265 -2 l89 6 73 105 c40 57 73 110 73 117
0 14 -114 16 -257 4z"/>
<path d="M1251 1160 l-94 -7 -44 -46 c-41 -43 -43 -49 -43 -105 0 -36 5 -64
13 -70 12 -9 210 -3 220 8 35 37 177 214 177 221 0 10 -85 10 -229 -1z"/>
<path d="M720 1136 c-25 -8 -175 -42 -335 -76 -352 -76 -365 -79 -365 -89 0
-5 24 -11 52 -14 55 -6 143 -19 438 -62 96 -14 202 -28 234 -32 l59 -6 -6 30
c-3 17 -9 83 -13 147 -4 64 -10 116 -13 115 -3 0 -26 -6 -51 -13z"/>
<path d="M1483 871 c-78 -3 -143 -8 -146 -11 -76 -82 -167 -198 -165 -209 2
-10 13 -16 31 -15 15 0 99 1 187 2 l160 2 80 108 c44 59 78 112 76 117 -3 12
-40 13 -223 6z"/>
<path d="M1838 868 c-8 -7 -46 -58 -83 -113 l-68 -100 179 -3 c99 -1 189 0
200 3 15 3 40 38 78 104 31 54 56 104 56 110 0 17 -341 15 -362 -1z"/>
<path d="M1127 863 c-36 -4 -38 -6 -33 -31 12 -49 29 -83 39 -79 20 6 89 96
82 106 -6 11 -15 11 -88 4z"/>
<path d="M700 714 c-111 -79 -188 -133 -360 -254 -125 -87 -193 -140 -186
-147 2 -2 37 5 78 16 40 11 145 39 233 61 303 78 469 120 472 120 11 0 -1 37
-24 73 -15 23 -41 78 -59 122 -18 44 -37 81 -41 82 -4 1 -55 -32 -113 -73z"/>
</g>
</svg>
