<svg class="svg-icon" style="width: 1em;height: 1em;vertical-align: middle;fill: currentColor;overflow: hidden;" viewBox="0 0 1024 1024" version="1.1" xmlns="http://www.w3.org/2000/svg"><path d="M904.4 934.3H115.3c-5.6 0-10.2-4.6-10.2-10.2s4.6-10.2 10.2-10.2h789.1c5.6 0 10.2 4.6 10.2 10.2s-4.6 10.2-10.2 10.2z"  /><path d="M814.2 308.4H205.4c-64.2 0-116.3-52.1-116.3-116.3v-10.3c0-64.2 52.1-116.3 116.3-116.3h608.8c64.2 0 116.3 52.1 116.3 116.3v10.3c0 64.2-52.1 116.3-116.3 116.3z" fill="#00A0E9" /><path d="M814.2 338.9H205.4c-81 0-146.9-65.9-146.9-146.9v-10.3c0-81 65.9-146.9 146.9-146.9h608.8c81 0 146.9 65.9 146.9 146.9V192c0 81.1-65.9 146.9-146.9 146.9zM205.4 96c-47.3 0-85.7 38.4-85.7 85.7V192c0 47.3 38.4 85.7 85.7 85.7h608.8c47.3 0 85.7-38.4 85.7-85.7v-10.3c0-47.3-38.4-85.7-85.7-85.7H205.4z" fill="#FFFFFF" /><path d="M814.2 318.6H205.4c-69.7 0-126.5-56.7-126.5-126.5v-10.3c0-69.7 56.7-126.5 126.5-126.5h608.8c69.7 0 126.5 56.7 126.5 126.5v10.3c0 69.7-56.7 126.5-126.5 126.5zM205.4 75.7c-58.5 0-106.1 47.6-106.1 106.1v10.3c0 58.5 47.6 106.1 106.1 106.1h608.8c58.5 0 106.1-47.6 106.1-106.1v-10.3c0-58.5-47.6-106.1-106.1-106.1H205.4z"  /><path d="M844.5 878.3H175.1V298.2h669.4v580.1z m-649-20.4h628.6V318.6H195.5v539.3z"  /><path d="M499.6 315.2H520v559.7h-20.4zM422.4 315.2h20.4v559.7h-20.4zM345.3 315.2h20.4v559.7h-20.4zM268.1 315.2h20.4v559.7h-20.4zM576.8 315.2h20.4v559.7h-20.4zM654 315.2h20.4v559.7H654z"  /><path d="M731.2 315.2h20.4v559.7h-20.4z"  /></svg>