<svg class="svg-icon" style="width: 1em;height: 1em;vertical-align: middle;fill: currentColor;overflow: hidden;" viewBox="0 0 1024 1024" version="1.1" xmlns="http://www.w3.org/2000/svg"><path d="M512.006 256.008a21.318 21.318 0 0 1-21.342-21.328c0-104.152 29.75-171.306 90.98-205.306C634.488 0.016 702.36 0.016 768.016 0.016c11.782 0 21.312 9.544 21.312 21.326s-9.532 21.344-21.312 21.344c-62.998 0-122.496 0-165.652 23.968-21.782 12.108-37.81 29.67-49.03 53.716-13.266 28.436-20.014 66.888-20.014 114.308 0 11.782-9.53 21.33-21.314 21.33z" fill="#434A54" /><path d="M512.006 981.298c-11.812 0-21.342-9.532-21.342-21.312V234.68c0-88.466-21.936-141.856-69.03-168.026-43.156-23.968-102.654-23.968-165.62-23.968-11.812 0-21.342-9.562-21.342-21.344S244.202 0.016 256.014 0.016c65.624 0 133.496 0 186.338 29.358 61.218 34 90.968 101.154 90.968 205.306v725.306a21.298 21.298 0 0 1-21.314 21.312z" fill="#656D78" /><path d="M554.678 810.68h-85.356a21.298 21.298 0 0 0-21.312 21.31v170.682c0 11.75 9.532 21.312 21.312 21.312h85.356c11.782 0 21.342-9.562 21.342-21.312v-170.682c0-11.78-9.562-21.31-21.342-21.31z" fill="#AAB2BC" /><path d="M256.014 0.016H128.018c-11.812 0-21.344 9.544-21.344 21.326V85.34c0 11.782 9.532 21.344 21.344 21.344h127.996c11.782 0 21.312-9.562 21.312-21.344V21.342c0-11.782-9.53-21.326-21.312-21.326zM896.012 0.016h-127.996c-11.812 0-21.344 9.544-21.344 21.326V85.34c0 11.782 9.532 21.344 21.344 21.344h127.996c11.782 0 21.312-9.562 21.312-21.344V21.342c0-11.782-9.532-21.326-21.312-21.326z" fill="#FFCE54" /><path d="M640.02 1023.984H384.01c-11.812 0-21.342-9.562-21.342-21.312 0-11.812 9.53-21.374 21.342-21.374H640.02c11.782 0 21.312 9.56 21.312 21.374 0 11.75-9.532 21.312-21.312 21.312z" fill="#434A54" /><path d="M959.948 1001.046L895.95 147.744a21.352 21.352 0 0 0-21.282-19.732h-85.34c-11.156 0-20.438 8.61-21.282 19.732l-63.998 853.302a21.446 21.446 0 0 0 5.654 16.124 21.306 21.306 0 0 0 15.624 6.812h213.34c5.936 0 11.592-2.468 15.624-6.812a21.448 21.448 0 0 0 5.658-16.124zM319.95 1001.046L255.952 147.744c-0.844-11.124-10.124-19.732-21.28-19.732H149.33c-11.156 0-20.436 8.61-21.28 19.732L64.052 1001.046a21.44 21.44 0 0 0 5.656 16.124 21.306 21.306 0 0 0 15.624 6.812h213.338c5.936 0 11.592-2.468 15.624-6.812a21.44 21.44 0 0 0 5.656-16.124z" fill="#F6BB42" /><path d="M256.014 0.016H128.018c-11.812 0-21.344 9.544-21.344 21.326v42.672h170.652V21.342c0-11.782-9.53-21.326-21.312-21.326zM896.012 0.016h-127.996c-11.812 0-21.344 9.544-21.344 21.326v42.672h170.652V21.342c0-11.782-9.532-21.326-21.312-21.326z" fill="#CCD1D9" /></svg>