<svg class="svg-icon" style="width: 1em;height: 1em;vertical-align: middle;fill: currentColor;overflow: hidden;" viewBox="0 0 1024 1024" version="1.1" xmlns="http://www.w3.org/2000/svg"><path d="M659 290.5c0-79.3 64.2-143.5 143.5-143.5S946 211.2 946 290.5 881.8 434 802.5 434 659 369.8 659 290.5z" fill="#FFDF9D" /><path d="M686 290.5c0-64.9 52.4-117.5 117-117.5s117 52.6 117 117.5S867.6 408 803 408s-117-52.6-117-117.5z" fill="#FFC95C" /><path d="M282 662h31v173h-31z" fill="#00dd20" /><path d="M53.5 622.5l57.6-202.2c1.6-5.6 6.6-9.4 12.4-9.4h348c5.8 0 10.8 3.8 12.4 9.4l57.6 202.2c2.4 8.2-3.8 16.5-12.4 16.5H65.9c-8.6 0-14.7-8.2-12.4-16.5" fill="#28C2E3" /><path d="M341.5 524.9v53.7h86.3l-7.4-53.7h-78.9z m-85.5 0v53.7h78.3v-53.7H256z m-88.1 0l-7.4 53.7H249v-53.7h-81.1z m173.6-60.7v53.5h77.9l-7.4-53.5h-70.5z m-85.5 0v53.5h78.3v-53.5H256z m-79.7 0l-7.4 53.5h80v-53.5h-72.6z m0.1-53.2h7.2l-6.4 46.1H249V411h7.1v46.1h78.3V411h7.1v46.1H411l-6.4-46.1h7.2l6.4 46.1h76.2l2 7.1h-77.3l7.4 53.5h85.2l2 7.1h-86.2l7.4 53.7H529l2 7.1h-95.2l7.3 53.4H436l-7.3-53.4h-87.2V639h-7.1v-53.4H256V639h-7v-53.4h-89.4l-7.3 53.4h-7.2l7.3-53.4H64l2-7.1h87.4l7.4-53.7H81.3l2-7.1h78.4l7.4-53.5H98.6l2-7.1h69.5l6.3-46.1z" fill="#1796B1" /><path d="M241 671h112c9.4 0 17-7.6 17-17v-17H224v17c0 9.4 7.6 17 17 17zM186 803h223c9.4 0 17 7.6 17 17v17H169v-17c0-9.4 7.6-17 17-17z" fill="#00dd20" /><path d="M603 626h38v209h-38z" fill="#00dd20" /><path d="M327.6 577.1l69.5-243.8c1.9-6.7 8-11.3 15-11.3H832c7 0 13.1 4.6 15 11.3l69.5 243.8c2.8 10-4.6 19.9-15 19.9H342.6c-10.4 0-17.8-9.9-15-19.9" fill="#7EDAEE" /><path d="M675.1 459.3V524h104.2l-8.9-64.7h-95.3z m-103.2 0V524h94.6v-64.7h-94.6z m-106.4 0l-8.9 64.7h106.8v-64.7h-97.9z m209.6-73.1v64.6h94.1l-8.9-64.6h-85.2z m-103.2 0v64.6h94.6v-64.6h-94.6z m-96.3 0l-8.9 64.6h96.7v-64.6h-87.8z m0.2-64.2h8.6l-7.7 55.6h86.6V322h8.6v55.6h94.6V322h8.6v55.6h84l-7.7-55.6h8.6l7.7 55.6h92.1l2.4 8.6h-93.3l8.9 64.6h102.9l2.4 8.6H779l8.9 64.7h113.7l2.4 8.6H789.1L798 597h-8.6l-8.9-64.4H675.1V597h-8.6v-64.4h-94.6V597h-8.6v-64.4h-108l-8.9 64.4h-8.6l8.9-64.4H340l2.4-8.6h105.5l8.9-64.7h-96l2.4-8.6h94.7l8.9-64.6h-85.2l2.4-8.6h83.9l7.9-55.5z" fill="#28C2E3" /><path d="M555 637h134c11.6 0 21-9.4 21-21v-21H534v21c0 11.6 9.4 21 21 21zM488 795h268c11.6 0 21 9.4 21 21v21H467v-21c0-11.6 9.4-21 21-21z" fill="#00dd20" /><path d="M175 958c0-8.8 150.9-16 337-16s337 7.2 337 16-150.9 16-337 16-337-7.2-337-16z" fill="#EEEFF3" /></svg>