<svg class="svg-icon" style="width: 1em; height: 1em;vertical-align: middle;fill: currentColor;overflow: hidden;" viewBox="0 0 1024 1024" version="1.1" xmlns="http://www.w3.org/2000/svg"><path d="M856.8 992H249.6c-34.4 0-64.8-22.4-76-54.4L49.6 564.8C40.8 538.4 60 512 87.2 512h607.2c34.4 0 64.8 22.4 76 54.4l124 372.8c8.8 26.4-10.4 52.8-37.6 52.8z" fill="#FFFFFF" /><path d="M936.8 832H329.6c-34.4 0-64.8-22.4-76-54.4L129.6 404.8c-8.8-25.6 10.4-52.8 37.6-52.8h607.2c34.4 0 64.8 22.4 76 54.4l124 372.8c8.8 26.4-10.4 52.8-37.6 52.8z" fill="#FFFFFF" /><path d="M894.4 939.2c8.8 25.6-10.4 52.8-37.6 52.8H192h214.4c248.8 0 424.8-244 345.6-480l142.4 427.2z" fill="#fdd609" /><path d="M856.8 1016H249.6c-44.8 0-84.8-28.8-98.4-71.2l-8.8-25.6c-4-12.8 2.4-26.4 15.2-30.4 12.8-4 26.4 2.4 30.4 15.2l8.8 25.6c8 23.2 28.8 38.4 52.8 38.4h607.2c5.6 0 9.6-2.4 12.8-6.4 3.2-4 4-9.6 2.4-14.4L747.2 574.4c-8-23.2-28.8-38.4-52.8-38.4H87.2c-5.6 0-9.6 2.4-12.8 6.4-3.2 4.8-4 9.6-2.4 14.4L134.4 744c4 12.8-2.4 26.4-15.2 30.4-12.8 4-26.4-2.4-30.4-15.2L26.4 572c-6.4-19.2-3.2-40.8 8.8-57.6 12-16.8 31.2-26.4 52-26.4h607.2c44.8 0 84.8 28.8 98.4 71.2l124 372.8c6.4 19.2 3.2 40.8-8.8 57.6-11.2 16.8-31.2 26.4-51.2 26.4zM942.4 855.2c-12 0-21.6-8.8-24-20-2.4-12.8 7.2-25.6 20-27.2 4.8-0.8 8.8-3.2 11.2-7.2 1.6-2.4 3.2-7.2 1.6-13.6-4-12.8 2.4-26.4 15.2-30.4 12.8-4 26.4 2.4 30.4 15.2 5.6 17.6 4 37.6-6.4 53.6-9.6 16-26.4 27.2-44.8 29.6h-3.2zM129.6 428.8c-10.4 0-19.2-6.4-22.4-16.8-6.4-19.2-3.2-40.8 8.8-57.6C128 337.6 147.2 328 168 328c13.6 0 24 10.4 24 24s-10.4 24-24 24c-5.6 0-9.6 2.4-12.8 6.4-3.2 4-4 9.6-2.4 14.4 4 12.8-2.4 26.4-15.2 30.4-3.2 0.8-5.6 1.6-8 1.6z" fill="#00dd20" /><path d="M974.4 803.2c-10.4 0-19.2-6.4-22.4-16.8l-124-372.8c-8-23.2-28.8-38.4-52.8-38.4h-608c-13.6 0-24-10.4-24-24s10.4-24 24-24h607.2c44.8 0 84.8 28.8 98.4 71.2l124 372.8c4 12.8-2.4 26.4-15.2 30.4-2.4 1.6-4.8 1.6-7.2 1.6z" fill="#00dd20" /><path d="M832 776H197.6c-13.6 0-24-10.4-24-24s10.4-24 24-24H832c13.6 0 24 10.4 24 24s-10.4 24-24 24zM672 1016c-10.4 0-19.2-6.4-22.4-16.8l-53.6-160c-4-12.8 2.4-26.4 15.2-30.4 12.8-4 26.4 2.4 30.4 15.2l53.6 160c4 12.8-2.4 26.4-15.2 30.4-3.2 1.6-5.6 1.6-8 1.6z" fill="#00dd20" /><path d="M592 776c-10.4 0-19.2-6.4-22.4-16.8l-53.6-160c-4-12.8 2.4-26.4 15.2-30.4 12.8-4 26.4 2.4 30.4 15.2l53.6 160c4 12.8-2.4 26.4-15.2 30.4-3.2 1.6-5.6 1.6-8 1.6zM432 1016c-10.4 0-19.2-6.4-22.4-16.8l-53.6-160c-4-12.8 2.4-26.4 15.2-30.4 12.8-4 26.4 2.4 30.4 15.2l53.6 160c4 12.8-2.4 26.4-15.2 30.4-3.2 1.6-5.6 1.6-8 1.6zM352 776c-10.4 0-19.2-6.4-22.4-16.8l-53.6-160c-4-12.8 2.4-26.4 15.2-30.4 12.8-4 26.4 2.4 30.4 15.2l53.6 160c4 12.8-2.4 26.4-15.2 30.4-3.2 1.6-5.6 1.6-8 1.6zM48 1016c-2.4 0-4 0-6.4-0.8-12.8-3.2-20.8-16.8-16.8-29.6l64-240c3.2-12.8 16.8-20.8 29.6-16.8 12.8 3.2 20.8 16.8 16.8 29.6l-64 240c-3.2 10.4-12.8 17.6-23.2 17.6z" fill="#00dd20" /></svg>